<svg xmlns="http://www.w3.org/2000/svg" viewBox="0 0 512 481.998"><title>graphicdesign</title><g id="Layer_2" data-name="Layer 2"><g id="Layer_1-2" data-name="Layer 1"><path d="M489.5,104.999H134.998v15H489.5a7.5079,7.5079,0,0,1,7.5,7.5v279.5h15v-279.5A22.5262,22.5262,0,0,0,489.5,104.999Z"/><path d="M0,127.499v37.5H15v-37.5a7.5079,7.5079,0,0,1,7.5-7.5h82.499v166h15v-181H22.5A22.5262,22.5262,0,0,0,0,127.499Z"/><path d="M497,459.498a7.5079,7.5079,0,0,1-7.5,7.5H134.998v15H489.5a22.5255,22.5255,0,0,0,22.5-22.5V421.999H497Z"/><path d="M104.999,466.998H22.5a7.5079,7.5079,0,0,1-7.5-7.5V179.999H0V459.498a22.5255,22.5255,0,0,0,22.5,22.5h97.499V300.999h-15Z"/><path d="M60,323.499a30,30,0,1,0-30-30A30.034,30.034,0,0,0,60,323.499Zm0-45a15,15,0,1,1-15,15A15.017,15.017,0,0,1,60,278.499Z"/><polygon points="90 192.249 90 165.999 30 165.999 30 233.499 90 233.499 90 207.249 75 207.249 75 218.499 45 218.499 45 180.999 75 180.999 75 192.249 90 192.249"/><path d="M38.4919,39.7244,90.524,75H334.5088a1.4143,1.4143,0,0,0,1.4143-1.4141V61.4141A1.4143,1.4143,0,0,0,334.5088,60H100.327V15h44.999V0H90.524L38.4919,35.2756A2.6875,2.6875,0,0,0,38.4919,39.7244ZM85.327,21.646V53.354L61.942,37.5Z"/><polygon points="30 420.998 90 420.998 90 394.748 75 394.748 75 405.998 45 405.998 45 368.498 75 368.498 75 379.748 90 379.748 90 353.498 30 353.498 30 420.998"/><rect x="145.327" y="29.999" width="45" height="15"/><rect x="205.327" y="29.999" width="15" height="15"/><rect x="164.998" y="436.999" width="15" height="15" rx="3.3057"/><path d="M395.8766,15a.0454.0454,0,0,1,.0454.0454V59.9546a.0454.0454,0,0,1-.0454.0454H350.9684a.0453.0453,0,0,0-.0453.0454V74.9546a.0453.0453,0,0,0,.0453.0454h81.7077c20.5026,0,37.7763-16.1433,38.2372-36.6407A37.54,37.54,0,0,0,433.4231,0H160.3713a.0454.0454,0,0,0-.0454.0454V14.9546a.0454.0454,0,0,0,.0454.0454Zm15.0454.0454A.0454.0454,0,0,1,410.9674,15h22.4557a22.5244,22.5244,0,0,1,22.4851,23.3246C455.47,50.5256,445.0367,60,432.8279,60h-21.86a.0454.0454,0,0,1-.0454-.0454Z"/><path d="M354.672,257.932a37.5,37.5,0,0,0-53.0341-53.033L241.144,265.3939a.0456.0456,0,0,0,0,.0642L251.6869,276a.0454.0454,0,0,0,.0642,0L312.244,215.505a22.5,22.5,0,0,1,31.8209,31.82l-81.7409,81.74a37.5007,37.5007,0,0,0,53.035,53.033l60.4939-60.4949a.0454.0454,0,0,0,0-.0642L365.31,310.9971a.0456.0456,0,0,0-.0643,0L304.7531,371.492a22.5005,22.5005,0,0,1-31.8211-31.82Z"/><rect x="467" y="134.999" width="15" height="15" rx="0.0454"/><path d="M241.022,286.6631a.0456.0456,0,0,0,0-.0642l-10.5409-10.5408a.0453.0453,0,0,0-.0642,0l-10.5408,10.5408a.0454.0454,0,0,0,0,.0642l10.5408,10.5408a.0454.0454,0,0,0,.0642,0Z"/><rect x="134.998" y="436.999" width="15" height="15" rx="3.3057"/><rect x="467" y="164.999" width="15" height="45" rx="0.0454"/><path d="M386.4481,310.9269l10.5408-10.54a.0454.0454,0,0,0,0-.0642l-10.5408-10.54a.0454.0454,0,0,0-.0642,0l-10.54,10.54a.0454.0454,0,0,0,0,.0642l10.54,10.54A.0454.0454,0,0,0,386.4481,310.9269Z"/></g></g></svg>