<svg xmlns="http://www.w3.org/2000/svg" viewBox="0 0 496 496"><title>videoediting</title><g id="Layer_2" data-name="Layer 2"><g id="Layer_1-2" data-name="Layer 1"><path d="M456,112H432V0H160V64.144L116.264,97.288l-36.4-26.672A39.945,39.945,0,1,0,40,112a39.5152,39.5152,0,0,0,11.96-2.032L75.752,128,51.96,146.032A39.5152,39.5152,0,0,0,40,144a40,40,0,1,0,39.864,41.368L96,173.544V344a40.0454,40.0454,0,0,0,40,40H240v20.464c-31.72,5.456-48,14.672-48,27.536v32c0,25.256,65.368,32,104,32s104-6.744,104-32V432c0-12.864-16.28-22.08-48-27.536V384H456a40.0454,40.0454,0,0,0,40-40V152A40.0454,40.0454,0,0,0,456,112ZM384,16h32V32H384Zm0,32h32V64H384Zm0,32h32V96H384Zm0,32h32v16H384Zm0,32h32v16H384Zm0,32h32v16H384Zm0,32h32v16H384Zm0,32h32v16H384Zm0,32h32v32H384ZM224,16H368V128H224Zm0,192h16V187.944l-16-11.72V144H368V256H224Zm0,64H368v32H224ZM176,16h32V32H176Zm0,32h32V64H176Zm0,32h32V96H176Zm0,32h32v16H176Zm32,32v20.504L180.016,144ZM160,84.216v22.608l-15.36,11.248-14.904-10.92Zm0,42.44v2.68L158.168,128ZM40,96A24,24,0,1,1,64,72,24.0293,24.0293,0,0,1,40,96Zm0,112a24,24,0,1,1,24-24A24.0293,24.0293,0,0,1,40,208Zm36.576-40.048a40.0119,40.0119,0,0,0-9.56-13.248L89,138.04l13.96,10.584Zm-9.56-66.648a40.0659,40.0659,0,0,0,9.568-13.256L218.464,192H186.688ZM176,256V240h32v16Zm32,16v32H176V272Zm-32-48V203.976L181.312,208H208v16Zm-16-32.152V304H112V161.824l4.264-3.12ZM384.096,463.432C381.264,469.376,349.4,480,296,480s-85.264-10.624-88-16V450.432C229.832,460.768,269.296,464,296,464c26.728,0,66.24-3.24,88.056-13.6Zm-.368-31.4C379.152,438.064,347.656,448,296,448s-83.152-9.936-87.728-15.968c1.928-2.264,10.336-7.4,31.728-11.392V432H352V420.64C373.392,424.624,381.8,429.768,383.728,432.032ZM256,416V384h80v32Zm224-72a24.0294,24.0294,0,0,1-24,24H136a24.0293,24.0293,0,0,1-24-24V320H480Zm0-40H432V128h24a24.0294,24.0294,0,0,1,24,24Z"/><rect x="440" y="336" width="16" height="16"/><rect x="376" y="336" width="16" height="16"/><rect x="408" y="336" width="16" height="16"/><path d="M324.424,53.264,286.312,34.208A20.95,20.95,0,0,0,256,52.944V91.056a20.95,20.95,0,0,0,30.312,18.736l38.112-19.056a20.95,20.95,0,0,0,0-37.472Zm-7.16,23.16L279.152,95.48A5.0832,5.0832,0,0,1,272,91.056V52.944a4.9447,4.9447,0,0,1,7.152-4.424l38.104,19.056a4.9415,4.9415,0,0,1,.008,8.848Z"/><path d="M324.424,181.264h0l-38.112-19.056A20.95,20.95,0,0,0,256,180.944v38.112a20.95,20.95,0,0,0,30.312,18.736l38.112-19.056a20.95,20.95,0,0,0,0-37.472Zm-7.16,23.16L279.152,223.48A5.0734,5.0734,0,0,1,272,219.056V180.944a4.9447,4.9447,0,0,1,7.152-4.424l38.104,19.056a4.9415,4.9415,0,0,1,.008,8.848Z"/></g></g></svg>