<svg xmlns="http://www.w3.org/2000/svg" viewBox="0 0 496 408"><title>webdesign</title><g id="Layer_2" data-name="Layer 2"><g id="Layer_1-2" data-name="Layer 1"><path d="M464,0H32A32.042,32.042,0,0,0,0,32V304a32.042,32.042,0,0,0,32,32H196.9l-10.67,32H160a8,8,0,0,0-8,8v16H80a8,8,0,0,0,0,16H432a8,8,0,0,0,0-16H344V376a8,8,0,0,0-8-8H309.77L299.1,336H464a32.042,32.042,0,0,0,32-32V32A32.042,32.042,0,0,0,464,0ZM328,384v8H168v-8ZM203.1,368l10.67-32h68.46l10.67,32ZM480,304a16.021,16.021,0,0,1-16,16H32a16.0211,16.0211,0,0,1-16-16V288H480ZM135.66,200l-3,72h-9.32l-3-72Zm-14.22-16,5.34-32h2.44l5.34,32ZM128,136c-8.67,0-16-10.99-16-24,0-8.21,8.38-20.14,15.98-28.55C134.83,91.05,144,103.2,144,112,144,125.01,136.67,136,128,136Zm87.06-16,.94,1.89V128H184v-6.11l.94-1.89Zm-22.12-16L200,89.89,207.06,104ZM216,144V271a8.2587,8.2587,0,0,0,.07,1H183.93a8.2587,8.2587,0,0,0,.07-1V144Zm72-32h24v16h-8a8,8,0,0,0,0,16h8v16H288a8,8,0,0,0,0,16h24v16h-8a8,8,0,0,0,0,16h8v16H288a8,8,0,0,0,0,16h24v32H256V80h56V96H288a8,8,0,0,0,0,16Zm96,96v63a8.2587,8.2587,0,0,0,.07,1H351.93a8.2587,8.2587,0,0,0,.07-1V208Zm-32-16v-6.11l16-32,16,32V192Zm128,80H399.93a8.2587,8.2587,0,0,0,.07-1V184a8.0812,8.0812,0,0,0-.84-3.58l-24-48a8.009,8.009,0,0,0-14.32,0l-24,48A8.0812,8.0812,0,0,0,336,184v87a8.2587,8.2587,0,0,0,.07,1H328V72a8,8,0,0,0-8-8H248a8,8,0,0,0-8,8V272h-8.07a8.2587,8.2587,0,0,0,.07-1V120a8.0812,8.0812,0,0,0-.84-3.58l-24-48a8.009,8.009,0,0,0-14.32,0l-24,48A8.0812,8.0812,0,0,0,168,120V271a8.2587,8.2587,0,0,0,.07,1h-19.4l3.32-79.67c.01-.18,0-.36,0-.55v-.24a8.0322,8.0322,0,0,0-.1-.84v-.02l-7.4-44.41C153.78,139.26,160,126.52,160,112c0-20.56-23.83-43.33-26.55-45.86a8.0171,8.0171,0,0,0-10.9,0C119.83,68.67,96,91.44,96,112c0,14.52,6.22,27.26,15.51,34.27l-7.4,44.41v.02a8.0052,8.0052,0,0,0-.1.84v.24c0,.19-.01.37,0,.55L107.33,272H16V32A16.0209,16.0209,0,0,1,32,16H464a16.0209,16.0209,0,0,1,16,16Z"/><path d="M40,312H88a8,8,0,0,0,0-16H40a8,8,0,0,0,0,16Z"/><path d="M112,312h8a8,8,0,0,0,0-16h-8a8,8,0,0,0,0,16Z"/><path d="M200,256a8,8,0,0,0,8-8V160a8,8,0,0,0-16,0v88A8,8,0,0,0,200,256Z"/><path d="M368,256a8,8,0,0,0,8-8V224a8,8,0,0,0-16,0v24A8,8,0,0,0,368,256Z"/><path d="M104,32H40a8,8,0,0,0,0,16h64a8,8,0,0,0,0-16Z"/><path d="M56,56H40a8,8,0,0,0,0,16H56a8,8,0,0,0,0-16Z"/><path d="M456,240H424a8,8,0,0,0,0,16h32a8,8,0,0,0,0-16Z"/><path d="M456,216h-8a8,8,0,0,0,0,16h8a8,8,0,0,0,0-16Z"/></g></g></svg>