<svg xmlns="http://www.w3.org/2000/svg" viewBox="0 0 464 431.6"><title>webdev</title><g id="Layer_2" data-name="Layer 2"><g id="Layer_1-2" data-name="Layer 1"><rect x="208" y="64.74" width="216" height="14.3867"/><rect x="208" y="93.5133" width="136" height="14.3867"/><rect x="208" y="122.2867" width="136" height="14.3867"/><rect x="272" y="35.9667" width="152" height="14.3867"/><rect x="240" y="35.9667" width="16" height="14.3867"/><rect x="224" y="287.7333" width="16" height="14.3867"/><path d="M125.656,48.2457,114.344,38.0743l-16,14.3867a6.6923,6.6923,0,0,0,0,10.1713l16,14.3867,11.312-10.1714-10.344-9.3009Z"/><path d="M189.656,52.461l-16-14.3867L162.344,48.2457l10.344,9.301-10.344,9.3009L173.656,77.019l16-14.3866A6.6924,6.6924,0,0,0,189.656,52.461Z"/><polygon points="128.401 76.843 144.416 33.684 159.586 38.235 143.571 81.394 128.401 76.843"/><polygon points="408 222.993 408 165.447 392 165.447 392 222.993 376 222.993 376 151.06 360 151.06 360 222.993 344 222.993 344 187.027 328 187.027 328 222.993 312 222.993 312 179.833 296 179.833 296 222.993 280 222.993 280 194.22 264 194.22 264 222.993 248 222.993 248 237.38 424 237.38 424 222.993 408 222.993"/><path d="M416,0H48C21.501.0234.026,19.333,0,43.16V287.7333c.026,23.827,21.501,43.1366,48,43.16h99.056l-32,57.5467H72c-13.255,0-24,9.6615-24,21.58S58.745,431.6,72,431.6H392c13.255,0,24-9.6616,24-21.58s-10.745-21.58-24-21.58H348.944l-32-57.5467H416c26.499-.0234,47.974-19.333,48-43.16V43.16C463.974,19.333,442.499.0234,416,0ZM16,101.21l18.184,19.4651a8.3906,8.3906,0,0,0,6.128,2.5681H64.8a8.3906,8.3906,0,0,0,6.128-2.5681L89.12,101.21l17.952,5.2439,1.984,25.3421a7.0487,7.0487,0,0,0,3.272,5.3159l19.816,12.948a8.78,8.78,0,0,0,6.64,1.1581l27.464-6.1359,11.104,13.7321-14.968,21.58a6.5675,6.5675,0,0,0-.784,6.0352l7.576,20.94a7.5613,7.5613,0,0,0,4.6,4.4455l26.224,9.56v16.9763l-26.24,9.56a7.5139,7.5139,0,0,0-4.6,4.4527l-2.4,6.5963H120.672c17.928-33.7512,2.032-74.18-35.504-90.3006A82.8482,82.8482,0,0,0,16,170.633Zm0,86.5358c25.876-18.1515,63.218-14.0045,83.404,9.2632,15.586,17.9636,16.789,42.8381,2.996,61.9508H16ZM392,402.8266c4.418,0,8,3.2209,8,7.1934s-3.582,7.1933-8,7.1933H72c-4.418,0-8-3.2208-8-7.1933s3.582-7.1934,8-7.1934ZM331.056,388.44H132.944l32-57.5467H299.056ZM448,287.7333c0,15.891-14.327,28.7733-32,28.7733H48c-17.673,0-32-12.8823-32-28.7733V273.3467H448Zm0-28.7733H186.04l24.968-9.1a7.238,7.238,0,0,0,4.992-6.661v-26.68a7.2369,7.2369,0,0,0-4.992-6.6682L183.2,199.7373l-5.264-14.5665,15.856-22.8748a6.601,6.601,0,0,0-.32-8.0278l-17.44-21.58a8.4823,8.4823,0,0,0-8.4-2.755l-29.088,6.474L124.8,127.43l-2.104-26.8311a7.38,7.38,0,0,0-5.512-6.3374l-28.2-8.2435a8.6471,8.6471,0,0,0-8.6,2.2227L61.128,108.85H44.064L24.8,88.2406a8.6468,8.6468,0,0,0-8.608-2.2227L16,86.0826V43.16c0-15.891,14.327-28.7733,32-28.7733H416c17.673,0,32,12.8823,32,28.7733Z"/></g></g></svg>